<svg xmlns="http://www.w3.org/2000/svg" aria-hidden="true" style="position:absolute;width:0;height:0;overflow:hidden"><defs><symbol id="hamburger" viewBox="0 0 32 33"><path stroke="#121417" stroke-linecap="round" stroke-width="3" d="M6.37 8.879H30.5M6.37 22.818H30.5M14.022 15.848H30.5"/></symbol><symbol id="close" viewBox="0 0 32 32"><path stroke="#fff" stroke-linecap="round" stroke-linejoin="round" stroke-width="3" d="M24 8 8 24M8 8l16 16"/></symbol><symbol id="youtube" viewBox="0 0 32 32"><path d="M24.24 6c-1.36-.08-4.16-.16-8.4-.16h-.56c-4.08 0-6.8.08-8.16.24-1.84.16-3.12.64-3.84 1.28-.64.56-1.12 1.6-1.28 2.96-.08.88-.16 2.72-.16 5.52v.4c0 2.64.08 4.48.24 5.36.24 1.28.64 2.24 1.44 2.8.8.64 2.16 1.04 4.08 1.2 1.36.08 4.16.16 8.4.16h.56c4.08 0 6.8-.08 8.16-.24 1.84-.16 3.12-.64 3.84-1.28.64-.56 1.12-1.6 1.28-2.96.08-.88.16-2.72.16-5.52v-.4c0-2.64-.08-4.48-.24-5.36-.24-1.28-.64-2.24-1.44-2.8-.8-.64-2.16-1.04-4.08-1.2zm-3.12 9.84-8.8 5.28V10.56l8.8 5.28z"/></symbol><symbol id="instagram" viewBox="0 0 32 32"><path d="M28.718 10.756a9.264 9.264 0 0 0-.596-3.145 6.547 6.547 0 0 0-3.743-3.737 9.42 9.42 0 0 0-3.108-.596c-1.368-.061-1.801-.078-5.273-.078s-3.916 0-5.274.078a9.413 9.413 0 0 0-3.106.596 6.541 6.541 0 0 0-3.743 3.737 9.288 9.288 0 0 0-.596 3.101c-.061 1.367-.08 1.8-.08 5.265s0 3.909.08 5.265a9.335 9.335 0 0 0 .596 3.104 6.548 6.548 0 0 0 3.744 3.735 9.37 9.37 0 0 0 3.106.639c1.369.061 1.803.079 5.274.079s3.916 0 5.274-.079a9.362 9.362 0 0 0 3.108-.595 6.555 6.555 0 0 0 3.743-3.737 9.35 9.35 0 0 0 .596-3.104c.061-1.365.08-1.798.08-5.265-.003-3.466-.003-3.906-.082-5.264zM15.99 22.531c-3.631 0-6.572-2.936-6.572-6.561s2.941-6.561 6.572-6.561c3.628 0 6.572 2.936 6.572 6.561s-2.944 6.561-6.572 6.561zm6.834-11.835a1.53 1.53 0 1 1 0-3.06 1.53 1.53 0 1 1 0 3.06z"/><path d="M15.992 19.976a4.004 4.004 0 1 0 0-8.009 4.004 4.004 0 0 0 0 8.009z"/></symbol><symbol id="facebook" viewBox="0 0 32 32"><path d="M19.52 4.64h.96v3.6h-1.2c-.48 0-.96 0-1.2.24s-.24.48-.24 1.04v1.28h2.64v3.04h-2.64v13.2h-4.08V13.76H11.6v-3.04h2.16V9.68c0-1.76.24-3.04.72-3.6.72-1.04 2.16-1.52 4.32-1.52.24.08.48.08.72.08z"/></symbol><symbol id="arrow_down" viewBox="0 0 56 32"><path d="M30.84 21.6A4.011 4.011 0 0 1 28 22.784a3.999 3.999 0 0 1-2.84-1.184L6.84 3.24A4.011 4.011 0 0 0 4 2.056 3.999 3.999 0 0 0 1.16 3.24a3.999 3.999 0 0 0 0 5.64l18.36 18.36a12 12 0 0 0 16.96 0L54.84 8.88a4.008 4.008 0 0 0 0-5.64A4.011 4.011 0 0 0 52 2.056a3.999 3.999 0 0 0-2.84 1.184L30.84 21.6z"/></symbol><symbol id="check_mark" viewBox="0 0 43 32"><path fill="none" stroke="#fff" stroke-linecap="round" stroke-linejoin="round" stroke-width="5.333" d="M39.111 2.667 14.666 27.112 3.555 16.001"/></symbol><symbol id="deal-icon" fill="none" viewBox="0 0 20 20"><path stroke="#fff" stroke-linecap="round" stroke-linejoin="round" stroke-width="1.5" d="m14 7-5.5 6L6 10.273"/></symbol><symbol id="deal-icon-circle" viewBox="0 0 20 20"><circle cx="10" cy="10" r="10" fill="#4DC274"/></symbol><symbol id="deal-splash" fill="none" viewBox="0 0 36 37"><path fill="#4DC274" fill-rule="evenodd" d="M2.097.8a1.5 1.5 0 0 1 2.1.296l4.815 6.39A1.5 1.5 0 0 1 6.617 9.29L1.802 2.9a1.5 1.5 0 0 1 .295-2.1ZM2 17.5a1.5 1.5 0 1 0 0 3h2a1.5 1.5 0 0 0 0-3H2Zm30 0a1.5 1.5 0 1 0 0 3h2a1.5 1.5 0 0 0 0-3h-2Zm-2.802 10.597a1.5 1.5 0 0 0-2.396 1.806l4.815 6.389a1.5 1.5 0 1 0 2.396-1.806l-4.815-6.389Zm-2.1-18.51a1.5 1.5 0 0 1-.296-2.1l4.815-6.39a1.5 1.5 0 1 1 2.396 1.806L29.198 9.29a1.5 1.5 0 0 1-2.1.295Zm-25.296 24.9a1.5 1.5 0 0 0 2.396 1.805l4.814-6.39a1.5 1.5 0 0 0-2.395-1.805l-4.815 6.39ZM18 31.498a1.5 1.5 0 0 1 1.5 1.5v2a1.5 1.5 0 0 1-3 0v-2a1.5 1.5 0 0 1 1.5-1.5Zm1.5-28.5a1.5 1.5 0 0 0-3 0v2a1.5 1.5 0 0 0 3 0v-2Z" clip-rule="evenodd"/></symbol></defs></svg>
